<svg id="svg12" xmlns="http://www.w3.org/2000/svg" xmlns:xlink="http://www.w3.org/1999/xlink" viewBox="0 0 57.54 23.2"><defs><style>.cls-1{fill:#14b8a6;}.cls-2{fill:url(#Degradado_sin_nombre_63);}</style><linearGradient id="Degradado_sin_nombre_63" x1="29.41" y1="20.45" x2="58.21" y2="20.45" gradientUnits="userSpaceOnUse"><stop offset="0" stop-color="#2563eb"/><stop offset="0.07" stop-color="#2072eb"/><stop offset="0.23" stop-color="#168eea"/><stop offset="0.36" stop-color="#109fe9"/><stop offset="0.47" stop-color="#0ea5e9"/><stop offset="0.81" stop-color="#12b2bb"/><stop offset="1" stop-color="#14b8a6"/><stop offset="1" stop-color="#0e8074"/><stop offset="1" stop-color="#063c36"/><stop offset="1" stop-color="#02100f"/><stop offset="1"/></linearGradient></defs><g id="SvgjsG10990"><path id="path6" class="cls-1" d="M14.78,5.8a2.23,2.23,0,0,0-2.14,2.25s0,0,0,0h0V9.63a.15.15,0,0,0,0,.07h0a3,3,0,0,0,.66,1.79,3,3,0,0,0-.67,1.87s0,0,0,0v5.29h0v0s0,0,0,.05h0a2.91,2.91,0,0,0,.82,2,3,3,0,0,0-.83,2.08h0v3.8h0v.09A2.24,2.24,0,0,0,14.74,29a2.12,2.12,0,0,0,1.76-1,1.66,1.66,0,0,0,.37.14,2.46,2.46,0,0,0,3-1.92l0-.17a2.61,2.61,0,0,0,3.19-1.27,3.15,3.15,0,0,0,0-3,3.86,3.86,0,0,0,.85-1.13,4,4,0,0,0-1.06-4.81,3,3,0,0,0,.27-1.25A2.79,2.79,0,0,0,21,11.83,3.34,3.34,0,0,0,20,8a2.71,2.71,0,0,0-2.2-.55,2.67,2.67,0,0,0-.88.32,2.21,2.21,0,0,0-2.12-2Zm-2.64,0A12.31,12.31,0,0,0,10,6h0l0,.06h0A2.27,2.27,0,0,1,5.81,7.86l0-.08A11.63,11.63,0,0,0,2.62,11a2.24,2.24,0,0,1,1.09,1.14v0a2.26,2.26,0,0,1-2.83,3,11.58,11.58,0,0,0,0,4.58l.07,0a2.27,2.27,0,0,1,3,1.2h0a2.25,2.25,0,0,1-1.21,3l-.09,0a11.45,11.45,0,0,0,3.23,3.2,2.27,2.27,0,0,1,4.16,0h0a2.27,2.27,0,0,1,0,1.68,12.24,12.24,0,0,0,2.09.21V22.15A4.75,4.75,0,0,1,10.41,13a4.71,4.71,0,0,1,1.73-.37V5.8Zm2.64.61a1.63,1.63,0,0,1,1.53,1.71.18.18,0,0,0,0,.1,3.45,3.45,0,0,0-.46.54.32.32,0,0,0,.09.43.31.31,0,0,0,.42-.09h0a2.15,2.15,0,0,1,3.21-.59,2.76,2.76,0,0,1,.53,3.6,2.23,2.23,0,0,1-1.74,1.06h-.2a2.8,2.8,0,0,0-.82-1.93,2.91,2.91,0,0,0,.48-1.61.31.31,0,0,0-.3-.31.3.3,0,0,0-.31.3h0a2.1,2.1,0,0,1-2,2.19,2.1,2.1,0,0,1-2-2.24,0,0,0,0,0,0,0h0V8.1a1.62,1.62,0,0,1,1.53-1.69ZM17,11.72a2.21,2.21,0,0,1,.15,2.86l-.17.19-.08.07-.06-.09a2.42,2.42,0,0,0-1.67-.95h0a.3.3,0,0,0-.31.3.31.31,0,0,0,.28.31,2,2,0,0,1,1.67,2.22,2.1,2.1,0,0,1-.1.51.31.31,0,0,0,.19.39.31.31,0,0,0,.39-.19h0a2.88,2.88,0,0,0,.13-.65,2.76,2.76,0,0,0-.19-1.29A2.5,2.5,0,0,0,17.6,15a2.7,2.7,0,0,0,.54-1.18,2.8,2.8,0,0,0,2-.72l.14-.14a2.89,2.89,0,0,0,.38-.47l0,0a2.14,2.14,0,0,1,1.84,2.21,2.44,2.44,0,0,1-.17.9s0,0,0,0a3.24,3.24,0,0,0-1.14-.34,3,3,0,0,0-1.11.09,1.55,1.55,0,0,0-.65-.8.34.34,0,0,0-.17-.05.3.3,0,0,0-.29.32.28.28,0,0,0,.15.25,1,1,0,0,1,.33,1.3.88.88,0,0,1-.12.19.3.3,0,1,0,.45.41h0a1.48,1.48,0,0,0,.21-.32,1.53,1.53,0,0,0,.17-.69,2.55,2.55,0,0,1,2,.27,3.3,3.3,0,0,1,1.17,4.24,2.88,2.88,0,0,1-1.66,1.5,1.14,1.14,0,0,1-.93-.09,2.82,2.82,0,0,1-1-1h0a2,2,0,0,0,.74-1.49.31.31,0,0,0-.28-.32h0a.32.32,0,0,0-.32.3,1.25,1.25,0,0,1-1.24,1.27,1.36,1.36,0,0,1-.29-.06.3.3,0,0,0-.38.2.29.29,0,0,0,.19.38,1.63,1.63,0,0,0,.45.09,1.77,1.77,0,0,0,.61-.08.08.08,0,0,0,0,0,3.34,3.34,0,0,0,1.21,1.19,1.79,1.79,0,0,0,1.41.13,3.31,3.31,0,0,0,.66-.31,2.5,2.5,0,0,1,0,2.32,2,2,0,0,1-2.62.91A2.61,2.61,0,0,0,18.11,23a2.06,2.06,0,0,0-.33-1.49.31.31,0,0,0-.26-.14.3.3,0,0,0-.3.31v.07a.3.3,0,0,0,0,.1A1.45,1.45,0,0,1,17,23.75a1.22,1.22,0,0,1-.26.16.3.3,0,0,0-.17.4.31.31,0,0,0,.4.17h0a1.62,1.62,0,0,0,.39-.25,1.85,1.85,0,0,0,.5-.62h0a2.07,2.07,0,0,1,1.33,2.49,1.9,1.9,0,0,1-1.5,1.51l-.18,0a1.45,1.45,0,0,1-.36,0l-.18,0a1.33,1.33,0,0,1-.28-.1,2.55,2.55,0,0,0,.13-.78.31.31,0,0,0-.31-.31.3.3,0,0,0-.3.29v0a1.66,1.66,0,0,1-1.38,1.7h-.16a1.63,1.63,0,0,1-1.53-1.71h0V23a2.13,2.13,0,0,1,1.85-2.31,2,2,0,0,0,.58.82,1.56,1.56,0,0,0,.4.25.3.3,0,0,0,.26-.55h0A1,1,0,0,1,16,21a1.46,1.46,0,0,1-.24-1.89.3.3,0,0,0-.07-.42.32.32,0,0,0-.18-.06.31.31,0,0,0-.25.14A2,2,0,0,0,15,20.06a2.58,2.58,0,0,0-1,.36,2.33,2.33,0,0,1-.69-1.72V13.41a2.29,2.29,0,0,1,.5-1.49,2.48,2.48,0,0,0,1.47.52A2.5,2.5,0,0,0,17,11.72Z" transform="translate(-0.66 -5.8)"/></g><path class="cls-2" d="M29.41,24.87V15.93H32.1A12.34,12.34,0,0,1,34,16a1.75,1.75,0,0,1,.83.43,2.35,2.35,0,0,1,.56.9,3.51,3.51,0,0,1,.22,1.21,2.73,2.73,0,0,1-.69,2,9.6,9.6,0,0,1,1.18,4.28h-2.8v-.08a7.38,7.38,0,0,0-.3-2.4c-.19-.55-.48-.83-.84-.83h0v3.31Zm2.73-7.1h0v1.72h.07a.68.68,0,0,0,.56-.21,1,1,0,0,0,.18-.67C32.91,18.05,32.65,17.77,32.14,17.77Z" transform="translate(-0.66 -5.8)"/><path class="cls-2" d="M41.53,21.8H39a1.69,1.69,0,0,0,.45.85,1,1,0,0,0,.72.3,1.56,1.56,0,0,0,1.35-.77v1.24A2.61,2.61,0,0,1,39.19,25a2.38,2.38,0,0,1-2-1,4.69,4.69,0,0,1-.74-2.81,4.68,4.68,0,0,1,.36-1.84A2.79,2.79,0,0,1,37.73,18,2.24,2.24,0,0,1,39,17.66a1.87,1.87,0,0,1,.87.22,2.67,2.67,0,0,1,.8.68,3.16,3.16,0,0,1,.57,1.13,5.15,5.15,0,0,1,.24,1.1C41.51,21.08,41.53,21.42,41.53,21.8Zm-2.67-1.23H40a1.81,1.81,0,0,0-.18-.82.48.48,0,0,0-.4-.3.46.46,0,0,0-.41.29,1.49,1.49,0,0,0-.17.75Z" transform="translate(-0.66 -5.8)"/><path class="cls-2" d="M42.41,22.21A2.43,2.43,0,0,0,43,23a1.14,1.14,0,0,0,.7.29c.32,0,.48-.17.48-.52a.66.66,0,0,0-.11-.36.7.7,0,0,0-.31-.24l-.56-.25a1.89,1.89,0,0,1-.89-.81A2.63,2.63,0,0,1,42,19.8a2,2,0,0,1,.64-1.57,2.67,2.67,0,0,1,1.8-.56,3.67,3.67,0,0,1,2.05.6l-.59,1.8c-.39-.51-.76-.76-1.11-.76a.4.4,0,0,0-.43.41.58.58,0,0,0,.17.43,2,2,0,0,0,.6.32,2,2,0,0,1,1.22.92,3,3,0,0,1,.27,1.26,2.34,2.34,0,0,1-.6,1.69,2.1,2.1,0,0,1-1.6.63,4.59,4.59,0,0,1-1.27-.21,6,6,0,0,1-1.32-.57Z" transform="translate(-0.66 -5.8)"/><path class="cls-2" d="M49.93,23.35l-.35,1.52H46.86L49,15.93h3.84l2.06,8.94h-2.7l-.35-1.52Zm.48-2.1h1l-.49-2.18Z" transform="translate(-0.66 -5.8)"/><path class="cls-2" d="M58.21,24.87H55.52V15.93h2.69Z" transform="translate(-0.66 -5.8)"/></svg>